<svg width="44" height="44" viewBox="0 0 44 44" fill="none" xmlns="http://www.w3.org/2000/svg">
<circle cx="22" cy="22" r="22" fill="#F8F1DB"/>
<path d="M25.0097 14.9029C27 14.9029 28.6586 15.5371 29.9854 16.8057C31.3285 18.0743 32 19.7543 32 21.8457C32 23.9371 31.3366 25.6171 30.0097 26.8857C28.6828 28.1543 27.0162 28.7886 25.0097 28.7886H24.0631V31H19.9369V28.7886H18.9903C16.9838 28.7886 15.3172 28.1543 13.9903 26.8857C12.6634 25.6171 12 23.9371 12 21.8457C12 19.7543 12.6634 18.0743 13.9903 16.8057C15.3333 15.5371 17 14.9029 18.9903 14.9029H19.9369V13H24.0631V14.9029H25.0097ZM18.9903 24.6229H19.9369V19.0686H18.9903C18.1327 19.0686 17.445 19.3 16.9272 19.7629C16.4256 20.2257 16.1748 20.92 16.1748 21.8457C16.1748 22.7886 16.4256 23.4914 16.9272 23.9543C17.445 24.4 18.1327 24.6229 18.9903 24.6229ZM25.0097 24.6229C25.8673 24.6229 26.5469 24.4 27.0485 23.9543C27.5663 23.4914 27.8252 22.7886 27.8252 21.8457C27.8252 20.92 27.5663 20.2257 27.0485 19.7629C26.5469 19.3 25.8673 19.0686 25.0097 19.0686H24.0631V24.6229H25.0097Z" fill="#3E3E3E"/>
</svg>
