<svg width="44" height="44" viewBox="0 0 44 44" fill="none" xmlns="http://www.w3.org/2000/svg">
<circle cx="22" cy="22" r="22" fill="#F8F1DB"/>
<path fill-rule="evenodd" clip-rule="evenodd" d="M28.713 14.5681C24.3144 13.3848 19.6854 13.3848 15.2869 14.5681C13.8103 14.9653 12.6826 16.1848 12.3895 17.7012C11.8702 20.3886 11.8702 23.1527 12.3895 25.8401C12.6825 27.3565 13.8102 28.576 15.2869 28.9735C17.947 29.6892 20.7022 29.975 23.4507 29.8202C23.8074 29.8002 24.1587 29.9192 24.4317 30.1522L27.671 32.9186C27.7304 32.9695 27.8138 32.9806 27.8842 32.9475C27.9547 32.9144 28 32.8427 28 32.7642V29.5517C28 29.3206 28.1564 29.1176 28.3778 29.0614C28.4897 29.0329 28.6015 29.0036 28.713 28.9735C30.1897 28.576 31.3174 27.3565 31.6104 25.8401C32.1298 23.1527 32.1298 20.3886 31.6104 17.7012C31.3173 16.1848 30.1896 14.9653 28.713 14.5681ZM26.164 17.2632C26.467 17.2632 26.7127 17.5088 26.7127 17.8118V19.7452C26.7127 20.0482 26.467 20.2938 26.164 20.2938H24.2645C23.9615 20.2938 23.7159 20.5394 23.7159 20.8424V26.0815C23.7159 26.3845 23.4703 26.63 23.1673 26.63H20.9953C20.6923 26.63 20.4467 26.3845 20.4467 26.0815V20.8424C20.4467 20.5394 20.2011 20.2938 19.8981 20.2938H17.9984C17.6954 20.2938 17.4498 20.0482 17.4498 19.7452V17.8118C17.4498 17.5088 17.6954 17.2632 17.9984 17.2632H26.164Z" fill="#3E3E3E"/>
</svg>
