<svg width="44" height="44" viewBox="0 0 44 44" fill="none" xmlns="http://www.w3.org/2000/svg">
<circle cx="22" cy="22" r="22" fill="#F8F1DB"/>
<g clip-path="url(#clip0_0_105)">
<path fill-rule="evenodd" clip-rule="evenodd" d="M21.1864 27.3229C20.3798 28.0803 19.582 28.8243 18.791 29.575C18.5145 29.8375 18.2034 29.9824 17.8067 29.9618C17.5366 29.9478 17.3849 29.8321 17.3021 29.584C16.6968 27.7697 16.0816 25.9585 15.4791 24.1434C15.4204 23.9667 15.3319 23.8818 15.1478 23.8274C13.7205 23.4063 12.2961 22.9761 10.8735 22.5405C10.6629 22.4761 10.4496 22.3932 10.2669 22.2761C9.94878 22.0726 9.90339 21.7489 10.1938 21.5145C10.4622 21.2979 10.7804 21.1165 11.1064 20.9921C12.9098 20.3039 14.7225 19.638 16.5319 18.9642C20.8843 17.3432 25.237 15.7224 29.5892 14.1007C30.4235 13.7898 31.0718 14.221 30.9936 15.0891C30.9421 15.6614 30.7877 16.2262 30.6638 16.7912C29.6993 21.1887 28.7311 25.5854 27.7641 29.9824C27.7622 29.9909 27.7616 29.9996 27.7597 30.008C27.5232 31.0139 26.7658 31.2889 25.9022 30.6757C24.4031 29.6112 22.9077 28.5419 21.4105 27.4749C21.3397 27.4245 21.2664 27.3772 21.1864 27.3229ZM17.8737 28.7077C17.897 28.6045 17.9132 28.5569 17.9179 28.5083C18.0131 27.5194 18.1125 26.5308 18.1967 25.5411C18.2155 25.3214 18.2834 25.1592 18.4595 25.0067C20.7314 23.0389 22.9962 21.0636 25.2628 19.0902C25.9076 18.5288 26.5551 17.9703 27.1936 17.4024C27.2606 17.3428 27.2752 17.2282 27.3141 17.1392C27.2155 17.1122 27.1049 17.0439 27.0207 17.0665C26.8261 17.1189 26.6299 17.1936 26.4592 17.2972C23.0891 19.3426 19.7234 21.3945 16.3532 23.4397C16.1818 23.5437 16.1328 23.6294 16.2016 23.8287C16.7352 25.3755 17.2534 26.9273 17.7772 28.4773C17.7977 28.5381 17.8267 28.5961 17.8737 28.7077Z" fill="#3E3E3E"/>
</g>
<defs>
<clipPath id="clip0_0_105">
<rect width="21" height="17" fill="white" transform="translate(10 14)"/>
</clipPath>
</defs>
</svg>
