<svg width="44" height="44" viewBox="0 0 44 44" fill="none" xmlns="http://www.w3.org/2000/svg">
<circle cx="22" cy="22" r="22" fill="#F8F1DB"/>
<g clip-path="url(#clip0_0_112)">
<path fill-rule="evenodd" clip-rule="evenodd" d="M19.9956 24.3865L19.995 19.2168L25.2398 21.8106L19.9956 24.3865ZM31.5116 18.321C31.5116 18.321 31.3217 17.0531 30.74 16.4948C30.0017 15.7617 29.1743 15.7583 28.7952 15.7157C26.0787 15.5294 22.0041 15.5294 22.0041 15.5294H21.9956C21.9956 15.5294 17.9209 15.5294 15.2045 15.7157C14.8248 15.7583 13.9979 15.7617 13.2591 16.4948C12.6773 17.0531 12.4881 18.321 12.4881 18.321C12.4881 18.321 12.2939 19.8102 12.2939 21.2988V22.6949C12.2939 24.1841 12.4881 25.6727 12.4881 25.6727C12.4881 25.6727 12.6773 26.9406 13.2591 27.4989C13.9979 28.232 14.9679 28.209 15.3998 28.2854C16.9528 28.4269 21.9998 28.4706 21.9998 28.4706C21.9998 28.4706 26.0787 28.4648 28.7952 28.2786C29.1743 28.2354 30.0017 28.232 30.74 27.4989C31.3217 26.9406 31.5116 25.6727 31.5116 25.6727C31.5116 25.6727 31.7057 24.1841 31.7057 22.6949V21.2988C31.7057 19.8102 31.5116 18.321 31.5116 18.321Z" fill="#3E3E3E"/>
</g>
<defs>
<clipPath id="clip0_0_112">
<rect width="19.4118" height="12.9412" fill="white" transform="translate(12.2939 15.5294)"/>
</clipPath>
</defs>
</svg>
